<svg fill="none" xmlns="http://www.w3.org/2000/svg" viewBox="0 0 133 122"><path d="M17.48 120.08l.07.67h78.28l-.08-.83-12.23-117-.07-.67H5.17l.08.83 12.23 117z" fill="#F4F5F9" stroke="#fff" stroke-width="1.5"/><path d="M18.23 120H95L82.77 3H6l12.23 117z" stroke="#18263C" stroke-width="2" stroke-miterlimit="10"/><path d="M43.96 122.22a42.63 42.63 0 01-.61-22.51c.69-2.68 2-5.27 4.1-7.07a10.74 10.74 0 0112.93-.5 10.74 10.74 0 013.45 12.48c2.25-1.46 4.03-2.78 6.65-3.34s5.52-.28 7.73 1.24c3.17 2.18 4.3 6.55 3.44 10.3-.86 3.75-3.36 6.92-6.2 9.51" fill="#006AFF" fill-opacity=".4"/><path d="M45.16 122.3c4.08-4.84 6.82-11.1 6.78-17.43.04-1.63-.23-3.26-.81-4.78a6.02 6.02 0 00-3.33-3.39c-2.1-.76-4.5.09-6.17 1.57s-2.6 3.05-3.72 5.51a51.69 51.69 0 00-1.7-10.87c-1.02-3.55-2.89-6.97-5.82-9.22-2.94-2.25-7.05-3.14-10.45-1.67-4.04 1.75-6.2 6.38-6.31 10.78-.1 4.44.92 8.83 2.94 12.78a21.23 21.23 0 00-8.36-5.17 7.78 7.78 0 00-5.1.16c-1.6.67-2.63 2.29-2.97 3.98-.33 1.68-.05 3.43.4 5.1 1.25 4.55 4.55 9.47 8.02 12.68M3.34 91.61a2.8 2.8 0 002.54.91 2.53 2.53 0 001.97-1.8 2.5 2.5 0 00-1.86-3c-.43-.11-.87-.11-1.3-.01-1.95.47-2.72 2.35-1.35 3.9z" fill="currentColor"/><path d="M113.9 51.44a3.99 3.99 0 003.61 1.3 3.6 3.6 0 002.8-2.55 3.55 3.55 0 00-2.64-4.27 3.84 3.84 0 00-1.84-.02c-2.77.67-3.86 3.35-1.92 5.54z" fill="#FFC000"/><path d="M117.36 121.4a156.43 156.43 0 001.26-2.39l.04-.09 1.32-2.48c.99-1.7 1.83-3.5 2.52-5.34.57-1.65 1.18-3.86.78-6.02a.25.25 0 00-.19-.2l-.44-.1a.25.25 0 00-.26.1 31.86 31.86 0 00-4.93 10.24 40.62 40.62 0 00-8.63-22.24.25.25 0 00-.36-.04l-.38.3a.25.25 0 00-.05.36 39.6 39.6 0 018.52 24.48c-.21-.68-.45-1.35-.73-2a9.03 9.03 0 00-3.5-4.2h-.01a5.3 5.3 0 00-1-.46 7.58 7.58 0 00-8.52-6.42.25.25 0 00-.21.28l.07.5c0 .06.04.12.1.16.05.04.11.05.18.05a6.57 6.57 0 017.34 5.22c-.18 0-.36 0-.54.02a2.58 2.58 0 00-2.2 1.72v.01a2.02 2.02 0 00.78 2.17c.21.14.45.23.7.27h.02a2.05 2.05 0 001.93-1.05c.3-.56.45-1.19.44-1.82l.4.21a8.17 8.17 0 013.11 3.73 24.88 24.88 0 011.44 4.92c.01.07.05.13.1.16.07.04.14.05.2.04l.1-.02.29.08c.11.03.23-.02.29-.12 0-.01 0-.02.02-.03zm.42-2.94l-.07.13c.71-4.28 2.31-8.37 4.7-12a13.59 13.59 0 01-.85 4.18c-.67 1.8-1.49 3.53-2.45 5.18-.42.76-.83 1.55-1.22 2.3l-.11.21zm-7.94-6.34a2.3 2.3 0 01.56 0v.2c.04.5-.06 1-.3 1.44a1.06 1.06 0 01-.96.55.72.72 0 01-.5-.34v-.01a1.04 1.04 0 01-.15-.82 1.57 1.57 0 011.35-1.02zm10.7-17.43c-.1.1-.08.26.02.35l.37.33c.05.05.12.07.18.06.07 0 .13-.03.17-.08l9.9-11.09c.1-.1.09-.26-.01-.35l-.37-.33a.25.25 0 00-.35.02l-9.91 11.09z" fill="#18263C" stroke="#fff" stroke-width=".5" stroke-linejoin="round"/><path d="M111.4 96.39a2.81 2.81 0 01-2.55.91 2.53 2.53 0 01-1.97-1.8 2.5 2.5 0 011.86-3c.43-.12.87-.12 1.3-.02 1.95.48 2.72 2.36 1.35 3.91z" fill="#D0CDF9"/><path d="M26.1 121.37a15.54 15.54 0 012.35-11.22 11.66 11.66 0 013.64-14.83l.28.41a11.16 11.16 0 00-3.59 13.99 4.98 4.98 0 012.7-1.83 3.35 3.35 0 012.82.72 2.32 2.32 0 01.89 1.93 2.34 2.34 0 01-1.03 1.75 3.24 3.24 0 01-2.65.52 4.82 4.82 0 01-2.77-2.2 15.04 15.04 0 00-2.14 10.67l-.5.1zm2.95-11.19c.94 1.5 2 2 2.59 2.15a2.78 2.78 0 002.23-.44 1.86 1.86 0 00.82-1.38 1.84 1.84 0 00-.71-1.53 2.83 2.83 0 00-2.4-.6 4.6 4.6 0 00-2.53 1.8z" fill="#3F2A27"/><path d="M25.85 121.44a28.55 28.55 0 01-3.04-15.23l.43-.15c1.29 1.43 1.85 3.37 2.2 4.9.33 1.74.52 3.5.56 5.27.04.83.1 1.7.16 2.54.06.83.12 1.7.16 2.55l-.47.12zm-2.59-14.57c-.25 4.55.6 9.09 2.5 13.23l-.1-1.3-.16-2.55a30.86 30.86 0 00-.55-5.18c-.3-1.3-.75-2.9-1.69-4.2zm35.99 14.54a32.22 32.22 0 01-.52-18.88l.47.14a31.74 31.74 0 00.24 17.7 41.6 41.6 0 012.77-8.32l.46.2a41.6 41.6 0 00-2.94 9.13l-.48.03z" fill="#3F2A27"/><path d="M60.6 103.6a2.37 2.37 0 01-2.15.78 2.13 2.13 0 01-1.66-1.52 2.11 2.11 0 011.57-2.54c.36-.1.74-.1 1.1 0 1.64.39 2.3 1.98 1.14 3.29z" fill="#fff"/><path d="M94.83 99.57H77.34v.5h17.5v-.5z" fill="#18263C"/><path d="M88.07 56.5l-7.62 48.56.5.07 7.61-48.54-.49-.08z" fill="#18263C"/><path opacity=".4" d="M105.51 18.07l.55 5.42 6.48-1.3-7.03-4.12z" fill="#006AFF"/><path d="M106.61 36.92a1.09 1.09 0 100-2.17 1.09 1.09 0 000 2.17z" fill="#E5EFFC"/><path d="M100.82 67.62l-3.94-3.7.92-.99a2.7 2.7 0 013.82-.12 2.71 2.71 0 01.12 3.83l-.92.98z" fill="currentColor" stroke="#18263C" stroke-miterlimit="10"/><path d="M96.88 63.91l-1.2 1.27 3.94 3.71 1.2-1.27-3.94-3.7zm2.74 4.99L82.86 86.7l-3.46 1.51-2.06.9.59-2.28.99-3.83 8.03-8.54.97-1.03 7.76-8.25 3.94 3.71z" fill="currentColor" stroke="#18263C" stroke-miterlimit="10"/><path d="M82.86 86.7l-3.46 1.51-2.06.9.59-2.28.99-3.83s3.37.24 3.94 3.7z" fill="currentColor" stroke="#18263C" stroke-miterlimit="10"/><path d="M77.34 89.1l.6-2.27 1.46 1.38-2.06.9z" fill="currentColor" stroke="#18263C" stroke-miterlimit="10"/><path d="M19.28 12.2l.42 3.09h55.72l-.43-3.08H19.28z" fill="#D3D9DF"/><path d="M75.42 20.91H20.95l2.81 29.84h54.47l-2.81-29.84z" stroke="#18263C" stroke-miterlimit="10"/><path opacity=".6" d="M75.42 20.91H20.95l2.81 29.84h54.47l-2.81-29.84z" fill="currentColor"/><path d="M54.39 42.36l-19.9-.18a.5.5 0 01-.07 0l5.44-13.8c.1-.27.48-.36.84-.2.11.04.22.12.3.2l8.98 9.38.43.45 3.98 4.15z" fill="#fff"/><path d="M69.78 41.3l-17.2-.05 2.13-4.1.15-.3 2.78-5.36c.2-.32.74-.37 1.2-.11a1.3 1.3 0 01.17.11l10.77 9.81zM50.53 28.66c1.62.11 3.19 1.35 3.5 2.76.31 1.4-.75 2.45-2.37 2.34-1.63-.11-3.2-1.35-3.5-2.76-.32-1.4.74-2.45 2.37-2.34z" fill="#fff"/><path d="M33.58 59.17l.42 1.49h18.15l-.42-1.49H33.58zm0 6.95L34 67.6h18.15l-.42-1.5H33.58z" fill="#D3D9DF"/><path d="M33.58 73.06l.42 1.5h18.15l-.42-1.5H33.58z" fill="currentColor"/><path d="M26.95 61.92a2 2 0 100-4 2 2 0 000 4z" fill="#FFC000" stroke="#18263C" stroke-width=".5" stroke-miterlimit="10"/><path d="M27.87 68.87a2 2 0 100-4.01 2 2 0 000 4z" fill="#006AFF" fill-opacity=".4" stroke="#18263C" stroke-width=".5" stroke-miterlimit="10"/><path d="M28.96 75.6a2 2 0 100-4.01 2 2 0 000 4z" fill="currentColor" stroke="#18263C" stroke-width=".5" stroke-miterlimit="10"/><path d="M57.95 61.92a2 2 0 100-4 2 2 0 000 4z" fill="#FFC000" stroke="#18263C" stroke-width=".5" stroke-miterlimit="10"/><path d="M58.87 68.87a2 2 0 100-4.01 2 2 0 000 4z" fill="#006AFF" fill-opacity=".4" stroke="#18263C" stroke-width=".5" stroke-miterlimit="10"/><path d="M59.96 75.6a2 2 0 100-4.01 2 2 0 000 4z" fill="currentColor" stroke="#18263C" stroke-width=".5" stroke-miterlimit="10"/><path d="M63.85 59.17l.42 1.49h18.14L82 59.17H63.85zm0 6.95l.42 1.49h18.14L82 66.1H63.85z" fill="#D3D9DF"/><path d="M63.85 73.06l.42 1.5h18.14l-.42-1.5H63.85z" fill="currentColor"/></svg>