<svg fill="none" xmlns="http://www.w3.org/2000/svg" viewBox="0 0 144 125"><circle cx="91" cy="63" r="50" stroke="#fff" stroke-width=".5" stroke-linecap="round" stroke-dasharray="2 2"/><circle cx="93" cy="63" r="50" stroke="#18263C" stroke-width=".5" stroke-linecap="round" stroke-dasharray="2 2"/><path opacity=".6" d="M19.92 119.89a19.92 19.92 0 100-39.84 19.92 19.92 0 000 39.84z" fill="currentColor"/><path d="M97.14 1.33L10.8 26.27a2.88 2.88 0 00-1.97 3.57l16.27 56.3a2.88 2.88 0 003.56 1.97L115 63.17a2.88 2.88 0 001.97-3.56L100.7 3.31a2.88 2.88 0 00-3.56-1.98z" stroke="#fff" stroke-width="1.5" stroke-miterlimit="10"/><path d="M97.34 2.06L11.01 26.99a2.13 2.13 0 00-1.46 2.64l16.27 56.3a2.13 2.13 0 002.63 1.46l86.34-24.94a2.13 2.13 0 001.45-2.63L99.98 3.5a2.13 2.13 0 00-2.64-1.45z" fill="#fff" stroke="#18263C" stroke-width="2" stroke-miterlimit="10"/><path d="M100.19 7.59L11.6 33.17l15.17 52.54 88.58-25.58L100.2 7.59z" fill="#F4F5F9"/><path d="M100.83 6.7l-90.3 26.6.1.36 90.3-26.6-.1-.35z" fill="#18263C"/><path d="M13.9 31.35a1.1 1.1 0 10-.62-2.1 1.1 1.1 0 00.62 2.1z" fill="#09D2B9"/><path d="M16.67 30.41a1.1 1.1 0 10-.62-2.1 1.1 1.1 0 00.62 2.1z" fill="#FFC000"/><path d="M12.03 106.47h-1.14v.38h1.14v-.38z" fill="#fff"/><path d="M117.56 120.9a13.08 13.08 0 01-3.23-8.32 5.9 5.9 0 01.39-2.28 2.88 2.88 0 011.58-1.62c1-.36 2.16.04 2.95.75.8.7 1.24 1.45 1.78 2.63.12-1.76.32-3.5.8-5.2a8.39 8.39 0 012.79-4.4 5.1 5.1 0 014.98-.79c1.93.83 2.97 3.05 3.02 5.15.04 2.12-.44 4.21-1.4 6.1a10.13 10.13 0 013.99-2.47c.8-.25 1.65-.22 2.43.08.76.31 1.26 1.09 1.42 1.9.16.8.02 1.64-.2 2.43a14.02 14.02 0 01-3.82 6.05" fill="currentColor"/><path d="M126.5 121s.2-2.5-.3-4a6.5 6.5 0 00-1.2-2c-.5-.5-.9-.66-1.5-.5-.53.14-.94.45-1 1-.08.75.75 1.2 1.5 1.2s1.19-.57 1.5-1.2c.5-1 .64-1.82.5-3-.21-1.83-.5-3-2.5-4" stroke="#2E2625" stroke-width=".2"/><path d="M126.56 120.9l.08-1.2.07-1.22c.02-.84.11-1.69.28-2.51.16-.73.43-1.66 1.04-2.34l.2.07c.2 2.5-.3 5.03-1.45 7.27l-.22-.06zm.66-4.88c-.16.81-.25 1.64-.27 2.47l-.08 1.22-.04.62c.9-1.98 1.31-4.15 1.2-6.32a5.39 5.39 0 00-.81 2z" fill="#2E2625"/><path d="M28.35 122.52c1.75-2.82 2.6-5.9 2.85-9.2.11-1.55.04-3.14-.54-4.57a5.15 5.15 0 00-3.22-3.12 4.21 4.21 0 00-4.99 2.79 18.33 18.33 0 00-1.25-5.5 8.84 8.84 0 00-3.44-4.42 3.99 3.99 0 00-3-.61c-1.1.28-1.91 1.19-2.56 2.12a15.53 15.53 0 00-2.66 10.05c-.84-.67-2.13-.68-3.1-.19a4.15 4.15 0 00-1.96 2.47 7.49 7.49 0 00-.18 3.22c.3 2.38 1.3 5.1 2.86 6.94" fill="#fff"/><path d="M16.32 122.46l-.24-.02a19.03 19.03 0 00-4.03-13.28l.19-.15c3 3.8 4.46 8.61 4.08 13.45z" fill="#3F3D56"/><path d="M13.55 110.61a1.35 1.35 0 01-1.2.44 1.2 1.2 0 01-.95-.86 1.2 1.2 0 01.89-1.44c.2-.05.41-.05.62 0 .93.22 1.3 1.12.64 1.86z" fill="#D0CDF9"/><path d="M16.29 122.5l-.22-.06a15.1 15.1 0 012.83-7.7l.21.04c.19 1-.1 2.03-.36 2.81-.33.88-.73 1.72-1.2 2.53l-.63 1.2-.63 1.19zm2.63-7.38a14.9 14.9 0 00-2.56 6.76l.35-.67.63-1.2c.46-.8.86-1.63 1.18-2.5.23-.67.48-1.54.4-2.4z" fill="#3F3D56"/><path d="M16.04 122.48c-.14-.81-.38-1.61-.7-2.38a4.03 4.03 0 00-1.53-1.83 2.3 2.3 0 00-.37-.18 3 3 0 010 .12c.02.3-.05.6-.2.87a.86.86 0 01-.8.44.7.7 0 01-.5-.33.85.85 0 01-.11-.68 1.11 1.11 0 01.95-.74c.13-.02.26-.02.39 0a3.26 3.26 0 00-3.67-2.74l-.03-.24a3.5 3.5 0 013.94 3.04c.19.06.36.14.53.23.73.47 1.3 1.14 1.63 1.94.32.78.55 1.6.7 2.43l-.23.05zm-3.1-4.48h-.14a.86.86 0 00-.74.57.62.62 0 00.22.64c.06.04.12.07.19.08a.63.63 0 00.57-.33c.13-.23.18-.49.16-.75v-.19a1.38 1.38 0 00-.26-.02zm10.76-13.42l-4.73 5.3.17.16 4.73-5.3-.18-.16z" fill="#3F3D56"/><g stroke="#18263C" stroke-width=".5"><circle cx="85" cy="58" r="3.75" fill="currentColor"/><circle cx="43" cy="55" r="3.75" fill="currentColor"/><circle cx="77" cy="44" r="3.75" fill="#62A2FD"/><circle cx="31" cy="38" r="3.75" fill="#62A2FD"/><circle cx="93" cy="23" r="3.75" fill="currentColor"/><circle cx="63" cy="37" r="3.75" fill="currentColor"/><circle cx="94" cy="34" r="3.75" fill="currentColor"/></g><path d="M114.98 58.9H27.6a2.85 2.85 0 00-2.85 2.85v58.67a2.85 2.85 0 002.85 2.85h87.37a2.85 2.85 0 002.85-2.85V61.75a2.85 2.85 0 00-2.85-2.85z" stroke="#fff" stroke-width="1.5" stroke-miterlimit="10"/><path d="M114.98 59.65H27.6a2.1 2.1 0 00-2.1 2.1v58.67c0 1.16.94 2.1 2.1 2.1h87.37a2.1 2.1 0 002.1-2.1V61.75a2.1 2.1 0 00-2.1-2.1z" fill="#fff" stroke="#18263C" stroke-width="2" stroke-miterlimit="10"/><path d="M116.1 65H26.5v55.5c0 .5.5 1 1 1H115c.5 0 1.1-.5 1.1-1V65z" fill="#F4F5F9"/><path d="M116.99 64.78h-91.2v.36H117v-.36z" fill="#18263C"/><path d="M28.9 64a1.1 1.1 0 100-2.2 1.1 1.1 0 000 2.2z" fill="#09D2B9"/><path d="M32.05 64a1.1 1.1 0 100-2.2 1.1 1.1 0 000 2.2z" fill="#FFC000"/><path d="M35.2 64a1.1 1.1 0 100-2.2 1.1 1.1 0 000 2.2zM19.67 29.41a1.1 1.1 0 10-.62-2.1 1.1 1.1 0 00.62 2.1z" fill="#6CCDEF"/><path d="M106.05 70.27H35.04a.63.63 0 010-1.27h71a.63.63 0 010 1.27zm-61 5H34.77c-.1 0-.19-.07-.25-.19a.92.92 0 01-.11-.44c0-.17.04-.33.1-.45.07-.12.17-.19.26-.19h10.28c.1 0 .19.07.25.19.07.12.11.28.11.45 0 .16-.04.32-.1.44-.07.12-.17.19-.26.19zM110.86 115h-9.72c-.08 0-.14.07-.14.16v.68c0 .09.06.16.14.16h9.72c.08 0 .14-.07.14-.16v-.68c0-.09-.06-.16-.14-.16z" fill="#D3D9DF"/><path d="M135.4 5.02L130.38 0l-5.02 5.02 5.02 5.02 5.02-5.02zm-13.75 6.04l-1.2-1.2-1.2 1.2 1.2 1.2 1.2-1.2z" fill="#FFC000"/><path opacity=".4" d="M134.47 21.53a2.28 2.28 0 100-4.56 2.28 2.28 0 000 4.56z" fill="#006AFF"/><rect x="53.25" y="76.25" width="11.5" height="11.5" rx=".75" fill="#fff" stroke="#18263C" stroke-width=".5"/><rect x="53.25" y="89.25" width="11.5" height="11.5" rx=".75" fill="#fff" stroke="#18263C" stroke-width=".5"/><rect x="53.25" y="102.25" width="11.5" height="11.5" rx=".75" fill="#fff" stroke="#18263C" stroke-width=".5"/><rect x="66.25" y="76.25" width="11.5" height="11.5" rx=".75" fill="#fff" stroke="#18263C" stroke-width=".5"/><rect x="66.25" y="89.25" width="11.5" height="11.5" rx=".75" fill="currentColor" stroke="#18263C" stroke-width=".5"/><rect x="66.25" y="102.25" width="11.5" height="11.5" rx=".75" fill="currentColor" stroke="#18263C" stroke-width=".5"/><rect x="79.25" y="76.25" width="11.5" height="11.5" rx=".75" fill="#F78822" stroke="#18263C" stroke-width=".5"/><rect x="79.25" y="89.25" width="11.5" height="11.5" rx=".75" fill="#fff" stroke="#18263C" stroke-width=".5"/><rect x="79.25" y="102.25" width="11.5" height="11.5" rx=".75" fill="#fff" stroke="#18263C" stroke-width=".5"/><path d="M60.48 80.39a1.87 1.87 0 00-.87-.22c-.45 0-.82.2-1.1.6-.28.4-.42.95-.42 1.64h.01c.25-.49.65-.73 1.2-.73.46 0 .83.15 1.1.45.27.3.41.7.41 1.18 0 .52-.16.95-.47 1.28-.32.33-.72.5-1.21.5-.54 0-.96-.21-1.27-.63a3.02 3.02 0 01-.46-1.8c0-.93.2-1.67.6-2.22.4-.55.94-.82 1.6-.82.37 0 .67.05.88.15v.62zm-2.35 2.88c0 .35.09.64.27.9.2.24.44.37.75.37.29 0 .53-.11.7-.33.19-.21.28-.49.28-.82 0-.37-.09-.65-.26-.85a.9.9 0 00-.73-.3c-.3 0-.54.1-.73.3-.19.2-.28.45-.28.73z" fill="#18263C"/><path d="M72.92 94.1c0-.3-.1-.51-.27-.68a1.05 1.05 0 00-.74-.24c-.22 0-.44.05-.66.16-.23.12-.43.28-.63.48v-.65c.18-.18.37-.31.59-.41.22-.1.48-.14.78-.14.47 0 .86.13 1.15.38.3.26.44.6.44 1.04 0 .4-.1.73-.27 1.01a3.2 3.2 0 01-.92.88c-.44.3-.74.52-.89.65a1.3 1.3 0 00-.3.38 1 1 0 00-.1.45h2.64V98H70.4v-.26c0-.3.04-.57.12-.78.08-.21.22-.42.41-.62.2-.2.5-.45.9-.73.41-.3.7-.55.85-.76.15-.23.23-.48.23-.76zm-.97 16.9v-4.53a3.16 3.16 0 01-1.22.63v-.66a4.47 4.47 0 001.63-.85h.25V111h-.66z" fill="#fff"/><path d="M70.63 84.28c.3.17.6.26.95.26.47 0 .84-.2 1.1-.57a2.75 2.75 0 00.38-1.59c-.24.44-.63.66-1.18.66-.44 0-.8-.15-1.1-.45-.3-.3-.44-.7-.44-1.2 0-.51.16-.94.48-1.27.32-.34.73-.5 1.24-.5.53 0 .94.2 1.23.62.3.41.45 1.01.45 1.8 0 .98-.2 1.73-.57 2.26-.39.53-.92.79-1.6.79-.37 0-.68-.06-.94-.18v-.63zm.39-2.97c0 .36.09.64.27.85.18.2.44.31.76.31a1 1 0 00.7-.28c.19-.2.28-.43.28-.7 0-.38-.1-.7-.28-.94a.88.88 0 00-.74-.38.9.9 0 00-.71.33 1.2 1.2 0 00-.28.81zM60.74 93.12c-.55.97-1 1.87-1.31 2.7a9.3 9.3 0 00-.59 2.18h-.7c.09-.62.29-1.33.6-2.13.32-.8.74-1.65 1.26-2.57h-2.62v-.6h3.36v.42zm-.14 16.25c0 .51-.17.93-.51 1.25-.35.31-.8.47-1.38.47-.5 0-.87-.07-1.12-.22v-.68c.36.23.73.34 1.1.34.37 0 .66-.1.9-.3.22-.2.33-.48.33-.81 0-.34-.12-.6-.35-.79a1.55 1.55 0 00-1-.28c-.33 0-.63.01-.9.04l.2-2.68h2.47v.58h-1.91l-.11 1.5.48-.02c.56 0 1 .14 1.32.42.32.28.48.67.48 1.18z" fill="#18263C"/><path d="M86.18 79.7v3.5h.8v.56h-.8V85h-.65v-1.24h-2.47v-.53a17.6 17.6 0 002.42-3.52h.7zm-2.37 3.5h1.72v-2.52a16.76 16.76 0 01-1.72 2.52z" fill="#fff"/><path d="M83.49 97.11c.36.28.77.43 1.23.43.36 0 .65-.1.86-.27a.9.9 0 00.32-.72c0-.67-.48-1-1.44-1h-.44v-.56h.42c.85 0 1.28-.32 1.28-.94 0-.59-.33-.88-.98-.88-.37 0-.72.13-1.05.38v-.63c.35-.2.75-.3 1.22-.3.45 0 .81.12 1.08.35.28.24.41.54.41.92 0 .7-.35 1.14-1.06 1.33v.02c.39.04.69.17.91.4.22.23.34.52.34.86 0 .48-.18.86-.52 1.15-.34.3-.8.44-1.37.44-.5 0-.9-.1-1.21-.28v-.7zm-.16 12.41c0-.3.1-.58.28-.84.18-.26.42-.44.7-.55-.23-.13-.41-.3-.54-.5-.14-.2-.2-.42-.2-.66a1.29 1.29 0 01.72-1.18c.23-.11.49-.17.76-.17.28 0 .53.06.76.17a1.3 1.3 0 01.73 1.18c0 .23-.07.45-.2.66-.13.2-.3.37-.54.5.29.11.52.3.7.55a1.54 1.54 0 01.05 1.65c-.14.24-.34.42-.6.56-.27.13-.57.2-.9.2-.33 0-.62-.07-.88-.2a1.48 1.48 0 01-.84-1.37zm.66-.03c0 .32.1.57.3.76.19.19.44.28.76.28s.58-.1.77-.28a1 1 0 00.3-.76 1.04 1.04 0 00-1.07-1.04c-.3 0-.56.1-.76.3-.2.2-.3.44-.3.74zm.2-2.46c0 .23.08.44.25.6.16.18.37.26.61.26s.45-.09.62-.26a.82.82 0 00.27-.6.82.82 0 00-.26-.61.85.85 0 00-.63-.25.85.85 0 00-.62.24.82.82 0 00-.25.62z" fill="#18263C"/></svg>