<svg fill="none" xmlns="http://www.w3.org/2000/svg" viewBox="0 0 144 125"><circle cx="91" cy="63" r="50" stroke="#fff" stroke-width=".5" stroke-linecap="round" stroke-dasharray="2 2"/><circle cx="93" cy="63" r="50" stroke="#18263C" stroke-width=".5" stroke-linecap="round" stroke-dasharray="2 2"/><path opacity=".6" d="M19.92 119.89a19.92 19.92 0 100-39.84 19.92 19.92 0 000 39.84z" fill="currentColor"/><path d="M97.14 1.33L10.8 26.27a2.88 2.88 0 00-1.97 3.57l16.27 56.3a2.88 2.88 0 003.56 1.97L115 63.17a2.88 2.88 0 001.97-3.56L100.7 3.31a2.88 2.88 0 00-3.56-1.98z" stroke="#fff" stroke-width="1.5" stroke-miterlimit="10"/><path d="M97.34 2.06L11.01 26.99a2.13 2.13 0 00-1.46 2.64l16.27 56.3a2.13 2.13 0 002.63 1.46l86.34-24.94a2.13 2.13 0 001.45-2.63L99.98 3.5a2.13 2.13 0 00-2.64-1.45z" fill="#fff" stroke="#18263C" stroke-width="2" stroke-miterlimit="10"/><path d="M100.19 7.59L11.6 33.17l15.17 52.54 88.58-25.58L100.2 7.59z" fill="#F4F5F9"/><path d="M100.83 6.7l-90.3 26.6.1.36 90.3-26.6-.1-.35z" fill="#18263C"/><path d="M13.9 31.35a1.1 1.1 0 10-.62-2.1 1.1 1.1 0 00.62 2.1z" fill="#09D2B9"/><path d="M16.67 30.41a1.1 1.1 0 10-.62-2.1 1.1 1.1 0 00.62 2.1z" fill="#FFC000"/><path d="M12.03 106.47h-1.14v.38h1.14v-.38z" fill="#fff"/><path d="M117.56 120.9a13.08 13.08 0 01-3.23-8.32 5.9 5.9 0 01.39-2.28 2.88 2.88 0 011.58-1.62c1-.36 2.16.04 2.95.75.8.7 1.24 1.45 1.78 2.63.12-1.76.32-3.5.8-5.2a8.39 8.39 0 012.79-4.4 5.1 5.1 0 014.98-.79c1.93.83 2.97 3.05 3.02 5.15.04 2.12-.44 4.21-1.4 6.1a10.13 10.13 0 013.99-2.47c.8-.25 1.65-.22 2.43.08.76.31 1.26 1.09 1.42 1.9.16.8.02 1.64-.2 2.43a14.02 14.02 0 01-3.82 6.05" fill="currentColor"/><path d="M126.5 121s.2-2.5-.3-4a6.5 6.5 0 00-1.2-2c-.5-.5-.9-.66-1.5-.5-.53.14-.94.45-1 1-.08.75.75 1.2 1.5 1.2s1.19-.57 1.5-1.2c.5-1 .64-1.82.5-3-.21-1.83-.5-3-2.5-4" stroke="#2E2625" stroke-width=".2"/><path d="M126.56 120.9l.08-1.2.07-1.22c.02-.84.11-1.69.28-2.51.16-.73.43-1.66 1.04-2.34l.2.07c.2 2.5-.3 5.03-1.45 7.27l-.22-.06zm.66-4.88c-.16.81-.25 1.64-.27 2.47l-.08 1.22-.04.62c.9-1.98 1.31-4.15 1.2-6.32a5.39 5.39 0 00-.81 2z" fill="#2E2625"/><path d="M28.35 122.52c1.75-2.82 2.6-5.9 2.85-9.2.11-1.55.04-3.14-.54-4.57a5.15 5.15 0 00-3.22-3.12 4.21 4.21 0 00-4.99 2.79 18.33 18.33 0 00-1.25-5.5 8.84 8.84 0 00-3.44-4.42 3.99 3.99 0 00-3-.61c-1.1.28-1.91 1.19-2.56 2.12a15.53 15.53 0 00-2.66 10.05c-.84-.67-2.13-.68-3.1-.19a4.15 4.15 0 00-1.96 2.47 7.49 7.49 0 00-.18 3.22c.3 2.38 1.3 5.1 2.86 6.94" fill="#fff"/><path d="M16.32 122.46l-.24-.02a19.03 19.03 0 00-4.03-13.28l.19-.15c3 3.8 4.46 8.61 4.08 13.45z" fill="#3F3D56"/><path d="M13.55 110.61a1.35 1.35 0 01-1.2.44 1.2 1.2 0 01-.95-.86 1.2 1.2 0 01.89-1.44c.2-.05.41-.05.62 0 .93.22 1.3 1.12.64 1.86z" fill="#D0CDF9"/><path d="M16.29 122.5l-.22-.06a15.1 15.1 0 012.83-7.7l.21.04c.19 1-.1 2.03-.36 2.81-.33.88-.73 1.72-1.2 2.53l-.63 1.2-.63 1.19zm2.63-7.38a14.9 14.9 0 00-2.56 6.76l.35-.67.63-1.2c.46-.8.86-1.63 1.18-2.5.23-.67.48-1.54.4-2.4z" fill="#3F3D56"/><path d="M16.04 122.48c-.14-.81-.38-1.61-.7-2.38a4.03 4.03 0 00-1.53-1.83 2.3 2.3 0 00-.37-.18 3 3 0 010 .12c.02.3-.05.6-.2.87a.86.86 0 01-.8.44.7.7 0 01-.5-.33.85.85 0 01-.11-.68 1.11 1.11 0 01.95-.74c.13-.02.26-.02.39 0a3.26 3.26 0 00-3.67-2.74l-.03-.24a3.5 3.5 0 013.94 3.04c.19.06.36.14.53.23.73.47 1.3 1.14 1.63 1.94.32.78.55 1.6.7 2.43l-.23.05zm-3.1-4.48h-.14a.86.86 0 00-.74.57.62.62 0 00.22.64c.06.04.12.07.19.08a.63.63 0 00.57-.33c.13-.23.18-.49.16-.75v-.19a1.38 1.38 0 00-.26-.02zm10.76-13.42l-4.73 5.3.17.16 4.73-5.3-.18-.16z" fill="#3F3D56"/><g stroke="#18263C" stroke-miterlimit="10"><path d="M88.42 39.17a1.24 1.24 0 01-1.18-.89L85 30.62a1.24 1.24 0 01.84-1.54l7.67-2.23a1.24 1.24 0 011.53.84l2.24 7.67a1.24 1.24 0 01-.84 1.53l-7.67 2.23c-.11.04-.23.05-.35.05zm-48.21 26.4a1.24 1.24 0 01-1.19-.89l-2.23-7.66a1.24 1.24 0 01.84-1.54l7.67-2.23a1.24 1.24 0 011.53.84l2.23 7.67a1.24 1.24 0 01-.84 1.53l-7.66 2.23c-.12.04-.23.05-.35.05z" fill="#006AFF" stroke-width=".57"/><path d="M70.76 49.39a.78.78 0 01-.75-.57L68.61 44a.78.78 0 01.52-.97l4.84-1.4a.78.78 0 01.97.52l1.4 4.84a.78.78 0 01-.53.97l-4.83 1.4a.78.78 0 01-.22.04z" fill="currentColor"/><path d="M84.67 24.45s-1.66-3.43-5.14 0c0 0 .28-3.6-1.54-3.43 0 0-2.57-.9-7.82 8.62" stroke-width="2"/><path d="M59.62 29.09L24 39.38l.62 2.13 35.62-10.29-.62-2.13zm2.26 7.83L26.26 47.2l.62 2.13L62.5 39.05l-.62-2.13z" fill="#FFC000"/><path d="M103.32 53.7L67.7 64l.61 2.13 35.62-10.3-.61-2.13z" fill="currentColor"/><path d="M58.35 55.08l.46 4.59 5.5-1.1-5.96-3.5z" fill="#006AFF" stroke-width=".48"/></g><path d="M114.98 58.9H27.6a2.85 2.85 0 00-2.85 2.85v58.67a2.85 2.85 0 002.85 2.85h87.37a2.85 2.85 0 002.85-2.85V61.75a2.85 2.85 0 00-2.85-2.85z" stroke="#fff" stroke-width="1.5" stroke-miterlimit="10"/><path d="M114.98 59.65H27.6a2.1 2.1 0 00-2.1 2.1v58.67c0 1.16.94 2.1 2.1 2.1h87.37a2.1 2.1 0 002.1-2.1V61.75a2.1 2.1 0 00-2.1-2.1z" fill="#fff" stroke="#18263C" stroke-width="2" stroke-miterlimit="10"/><path d="M116.1 65H26.5v55.5c0 .5.5 1 1 1H115c.5 0 1.1-.5 1.1-1V65z" fill="#F4F5F9"/><path d="M116.99 64.78h-91.2v.36H117v-.36z" fill="#18263C"/><path d="M28.9 64a1.1 1.1 0 100-2.2 1.1 1.1 0 000 2.2z" fill="#09D2B9"/><path d="M32.05 64a1.1 1.1 0 100-2.2 1.1 1.1 0 000 2.2z" fill="#FFC000"/><path d="M35.2 64a1.1 1.1 0 100-2.2 1.1 1.1 0 000 2.2zM19.67 29.41a1.1 1.1 0 10-.62-2.1 1.1 1.1 0 00.62 2.1z" fill="#6CCDEF"/><path d="M106.05 70.27H35.04a.63.63 0 010-1.27h71a.63.63 0 010 1.27zm-61 5H34.77c-.1 0-.19-.07-.25-.19a.92.92 0 01-.11-.44c0-.17.04-.33.1-.45.07-.12.17-.19.26-.19h10.28c.1 0 .19.07.25.19.07.12.11.28.11.45 0 .16-.04.32-.1.44-.07.12-.17.19-.26.19zM110.86 115h-9.72c-.08 0-.14.07-.14.16v.68c0 .09.06.16.14.16h9.72c.08 0 .14-.07.14-.16v-.68c0-.09-.06-.16-.14-.16z" fill="#D3D9DF"/><path d="M135.4 5.02L130.38 0l-5.02 5.02 5.02 5.02 5.02-5.02zm-13.75 6.04l-1.2-1.2-1.2 1.2 1.2 1.2 1.2-1.2z" fill="#FFC000"/><path opacity=".4" d="M134.47 21.53a2.28 2.28 0 100-4.56 2.28 2.28 0 000 4.56z" fill="#006AFF"/><path d="M44.37 99.74a6.37 6.37 0 100-12.74 6.37 6.37 0 000 12.74z" fill="currentColor" stroke="#18263C" stroke-miterlimit="10"/><path d="M61.89 99.74a6.37 6.37 0 100-12.74 6.37 6.37 0 000 12.74zm17.51 0a6.37 6.37 0 100-12.74 6.37 6.37 0 000 12.74zm17.52 0a6.37 6.37 0 100-12.74 6.37 6.37 0 000 12.74z" stroke="#18263C" stroke-miterlimit="10"/><path d="M79.19 99.25a5.88 5.88 0 110-11.75v11.75z" fill="currentColor"/><path opacity=".6" d="M67.76 93.38a5.88 5.88 0 11-5.87-5.88v5.88h5.87z" fill="#006AFF"/><path d="M91.04 93.38a5.88 5.88 0 015.88-5.88v5.88h-5.88z" fill="#FFC000"/><path fill="#18263C" d="M79.17 87.5h.47v11.76h-.47zm17.75 0h.47v5.94h-.47zm-35.03 0h.47v5.94h-.47z"/><path fill="#18263C" d="M97.38 93.37v.47h-6.4v-.47zm-29.09 0v.47h-6.4v-.47z"/><path d="M98.86 114h-5.72c-.08 0-.14.06-.14.13v2.74c0 .07.06.13.14.13h5.72c.08 0 .14-.06.14-.13v-2.74c0-.07-.06-.13-.14-.13z" fill="currentColor"/></svg>